<svg width="20" height="19" viewBox="0 0 20 19" fill="none" xmlns="http://www.w3.org/2000/svg">
<path d="M8.86138 0.69098C9.16074 -0.23033 10.4641 -0.230328 10.7635 0.690982L12.3944 5.71024C12.5282 6.12226 12.9122 6.40122 13.3454 6.40122H18.623C19.5917 6.40122 19.9945 7.64083 19.2107 8.21024L14.9411 11.3123C14.5906 11.5669 14.444 12.0183 14.5778 12.4303L16.2087 17.4496C16.5081 18.3709 15.4536 19.137 14.6699 18.5676L10.4002 15.4656C10.0497 15.2109 9.57514 15.2109 9.22465 15.4656L4.95502 18.5676C4.17131 19.137 3.11683 18.3709 3.41618 17.4496L5.04703 12.4303C5.18091 12.0183 5.03425 11.5669 4.68376 11.3123L0.414129 8.21023C-0.369584 7.64083 0.0331929 6.40122 1.00192 6.40122H6.27947C6.7127 6.40122 7.09665 6.12226 7.23053 5.71024L8.86138 0.69098Z" fill="#B0B0B0"/>
</svg>
